<?xml version="1.0"?>
<svg xmlns="http://www.w3.org/2000/svg" viewBox="0 0 192 192" width="512" height="512">
	<g fill="white" id="_01-communication" data-name="01-communication">
		<circle cx="64" cy="56" r="8" />
		<circle cx="40" cy="56" r="8" />
		<circle cx="88" cy="56" r="8" />
		<path d="M177.2,155.828C186.781,145.786,192,133.23,192,120c0-30.878-28.71-56-64-56-.218,0-.433.013-.651.014A49.742,49.742,0,0,0,128,56C128,25.122,99.29,0,64,0S0,25.122,0,56C0,69.229,5.22,81.785,14.8,91.828l-6.56,26.231c-1.5,5.81,4.511,12.008,10.912,9.294l36.858-15.8a73.489,73.489,0,0,0,8.656.431A49.264,49.264,0,0,0,64,120c0,30.878,28.71,56,64,56a73.5,73.5,0,0,0,7.994-.441l36.855,15.794c5.168,2.576,12.709-2.753,10.912-9.293ZM55.966,95.428A8,8,0,0,0,51.7,96l-24.025,10.3,3.767-15.062A8,8,0,0,0,29,83.313C20.616,75.856,16,66.156,16,56c0-22.056,21.533-40,48-40s48,17.944,48,40a33.629,33.629,0,0,1-1.572,10.164C92.8,70.575,78.259,81.433,70.383,95.638A57.466,57.466,0,0,1,55.966,95.428Zm107.039,51.885a8,8,0,0,0-2.444,7.917l3.766,15.063L140.305,160a7.992,7.992,0,0,0-3.152-.647,7.89,7.89,0,0,0-1.116.078A57.86,57.86,0,0,1,128,160c-26.467,0-48-17.944-48-40s21.533-40,48-40,48,17.944,48,40C176,130.158,171.385,139.857,163.005,147.313Z" />
		<circle cx="128" cy="120" r="8" />
		<circle cx="104" cy="120" r="8" />
		<circle cx="152" cy="120" r="8" />
	</g>
</svg>
